<svg width="142" height="33" viewBox="0 0 142 33" fill="none" xmlns="http://www.w3.org/2000/svg">
<path d="M37.822 22.2941L51.4759 4.5335H59.9028L46.249 22.2941H37.822ZM37.822 26.2943V22.2941L43.3689 20.2141H59.5828V26.2943H37.822ZM38.7821 6.61358V0.533354H59.9028V4.5335L54.3026 6.61358H38.7821Z" fill="#FED136"/>
<path d="M74.785 26.8276C72.4383 26.8276 70.3227 26.241 68.4381 25.0676C66.5536 23.8942 65.078 22.2941 64.0113 20.2674C62.9446 18.2407 62.4113 15.965 62.4113 13.4405C62.4113 10.8804 62.9446 8.58698 64.0113 6.56024C65.078 4.5335 66.5536 2.93344 68.4381 1.76007C70.3227 0.586688 72.4383 0 74.785 0C76.634 0 78.2874 0.373346 79.7452 1.12004C81.2031 1.86673 82.3587 2.91566 83.212 4.26682C84.1009 5.58243 84.581 7.07582 84.6521 8.74699V18.0273C84.581 19.7341 84.1009 21.2452 83.212 22.5608C82.3587 23.8764 81.2031 24.9254 79.7452 25.7076C78.2874 26.4543 76.634 26.8276 74.785 26.8276ZM76.0651 20.3741C78.0207 20.3741 79.603 19.7341 80.8119 18.454C82.0209 17.1384 82.6253 15.4495 82.6253 13.3872C82.6253 12.036 82.3409 10.8448 81.772 9.81369C81.2386 8.74699 80.4741 7.92918 79.4785 7.36027C78.5185 6.7558 77.3807 6.45357 76.0651 6.45357C74.785 6.45357 73.6472 6.7558 72.6516 7.36027C71.6916 7.92918 70.9271 8.74699 70.3582 9.81369C69.8249 10.8448 69.5582 12.036 69.5582 13.3872C69.5582 14.7739 69.8249 16.0006 70.3582 17.0673C70.9271 18.0984 71.6916 18.9162 72.6516 19.5207C73.6472 20.0896 74.785 20.3741 76.0651 20.3741ZM82.252 26.2943V19.3607L83.372 13.0671L82.252 6.88025V0.533354H89.1856V26.2943H82.252Z" fill="#FED136"/>
<path d="M95.3666 26.2943V0.533354H102.354V26.2943H95.3666ZM102.354 12.0538L99.6335 10.2404C99.9535 7.07581 100.878 4.58684 102.407 2.77344C103.936 0.924479 106.14 0 109.02 0C110.265 0 111.385 0.213341 112.381 0.640023C113.376 1.03115 114.283 1.68895 115.101 2.61343L110.727 7.62695C110.336 7.20026 109.856 6.88025 109.287 6.66691C108.754 6.45357 108.132 6.3469 107.42 6.3469C105.927 6.3469 104.7 6.82692 103.74 7.78695C102.816 8.71143 102.354 10.1337 102.354 12.0538Z" fill="#FED136"/>
<path d="M127.599 26.8276C125.253 26.8276 123.137 26.241 121.253 25.0676C119.368 23.8942 117.892 22.2941 116.826 20.2674C115.759 18.2407 115.226 15.965 115.226 13.4405C115.226 10.8804 115.759 8.58698 116.826 6.56024C117.892 4.5335 119.368 2.93344 121.253 1.76007C123.137 0.586688 125.253 0 127.599 0C129.448 0 131.102 0.373346 132.56 1.12004C134.017 1.86673 135.173 2.91566 136.026 4.26682C136.915 5.58243 137.395 7.07582 137.467 8.74699V18.0273C137.395 19.7341 136.915 21.2452 136.026 22.5608C135.173 23.8764 134.017 24.9254 132.56 25.7076C131.102 26.4543 129.448 26.8276 127.599 26.8276ZM128.88 20.3741C130.835 20.3741 132.417 19.7341 133.626 18.454C134.835 17.1384 135.44 15.4495 135.44 13.3872C135.44 12.036 135.155 10.8448 134.586 9.81369C134.053 8.74699 133.289 7.92918 132.293 7.36027C131.333 6.7558 130.195 6.45357 128.88 6.45357C127.599 6.45357 126.462 6.7558 125.466 7.36027C124.506 7.92918 123.742 8.74699 123.173 9.81369C122.639 10.8448 122.373 12.036 122.373 13.3872C122.373 14.7739 122.639 16.0006 123.173 17.0673C123.742 18.0984 124.506 18.9162 125.466 19.5207C126.462 20.0896 127.599 20.3741 128.88 20.3741ZM135.066 26.2943V19.3607L136.186 13.0671L135.066 6.88025V0.533354H142V26.2943H135.066Z" fill="#FED136"/>
<path d="M29.6654 21.2411C28.5211 22.6624 27.117 23.8515 25.5334 24.7407C23.9497 25.6299 22.2175 26.2017 20.4356 26.4235C18.6537 26.6452 16.857 26.5126 15.1481 26.0332C13.4392 25.5537 11.8516 24.7369 10.4758 23.6293C9.10014 22.5216 7.96329 21.1449 7.13021 19.5777C6.29713 18.0105 5.78413 16.2835 5.6205 14.4953C5.45688 12.7071 5.64583 10.8927 6.17657 9.15579C6.70731 7.41885 7.56944 5.79335 8.71375 4.3721L19.1896 12.8066L29.6654 21.2411Z" fill="#8345FE"/>
<path d="M26.8445 0.973511C26.8445 2.03474 26.6425 3.08557 26.2499 4.06602C25.8573 5.04646 25.2819 5.93732 24.5565 6.68771C23.8311 7.43811 22.97 8.03336 22.0222 8.43948C21.0745 8.84559 20.0587 9.05462 19.0328 9.05462C18.007 9.05462 16.9911 8.84559 16.0434 8.43948C15.0956 8.03336 14.2345 7.43811 13.5091 6.68771C12.7837 5.93731 12.2083 5.04646 11.8157 4.06602C11.4231 3.08557 11.2211 2.03474 11.2211 0.973511L19.0328 0.973511L26.8445 0.973511Z" fill="#8345FE"/>
</svg>
