<svg width="1011" height="282" viewBox="0 0 1011 282" fill="none" xmlns="http://www.w3.org/2000/svg">
<path d="M12.3072 183.352H71.8637C72.1284 193.684 74.3783 202.028 78.6135 208.386C83.1133 214.744 88.5395 219.247 94.8922 221.896C101.51 224.545 108.524 225.87 115.935 225.87C131.023 225.87 141.611 220.969 147.699 211.168C154.052 201.366 157.228 187.591 157.228 169.842V56.5951H44.8648V0.964844H217.181V177.789C217.181 198.982 212.946 217.393 204.476 233.022C196.006 248.652 184.095 260.705 168.742 269.182C153.655 277.394 136.052 281.5 115.935 281.5C97.1421 281.5 79.8046 277.791 63.9229 270.374C48.0411 262.957 35.4681 252.096 26.2038 237.791C16.9394 223.221 12.3072 205.605 12.3072 184.942C12.3072 184.412 12.3072 183.882 12.3072 183.352Z" fill="#0043A8"/>
<path d="M70.3841 119.159C55.3875 119.159 43.1902 106.952 43.1902 91.743C43.1902 91.743 43.1902 91.5429 42.9903 91.5429H39.3911C39.1912 91.5429 39.1912 91.743 39.1912 91.743C39.1912 106.952 26.9939 119.159 11.7974 119.159C11.7974 119.159 11.5974 119.159 11.5974 119.359V122.961C11.5974 123.161 11.7974 123.161 11.7974 123.161C26.9939 123.161 39.1912 135.368 39.1912 150.376C39.1912 150.576 39.1912 150.776 39.3911 150.776H42.9903C43.1902 150.776 43.1902 150.576 43.1902 150.376C43.1902 135.368 55.3875 123.161 70.3841 123.161C70.584 123.161 70.784 123.161 70.784 122.961V119.359C70.784 119.159 70.584 119.159 70.3841 119.159Z" fill="#F6911E"/>
<path d="M20.0956 87.9142C15.0967 87.9142 11.0309 83.8452 11.0309 78.7756C11.0309 78.7756 11.0309 78.7089 10.9643 78.7089H9.76456C9.69791 78.7089 9.69791 78.7756 9.69791 78.7756C9.69791 83.8452 5.63218 87.9142 0.56665 87.9142C0.56665 87.9142 0.5 87.9142 0.5 87.9809V89.1815C0.5 89.2482 0.56665 89.2482 0.56665 89.2482C5.63218 89.2482 9.69791 93.3172 9.69791 98.3201C9.69791 98.3868 9.69791 98.4535 9.76456 98.4535H10.9643C11.0309 98.4535 11.0309 98.3868 11.0309 98.3201C11.0309 93.3172 15.0967 89.2482 20.0956 89.2482C20.1622 89.2482 20.2289 89.2482 20.2289 89.1815V87.9809C20.2289 87.9142 20.1622 87.9142 20.0956 87.9142Z" fill="#0043A8"/>
<path d="M336.124 125.392C336.124 130.619 334.545 134.812 331.385 137.97C328.335 141.019 324.196 142.543 318.967 142.543C313.412 142.543 309 141.019 305.732 137.97C302.573 134.812 300.993 130.619 300.993 125.392V95.9888H310.797V126.372C310.797 128.768 311.505 130.673 312.921 132.089C314.337 133.396 316.189 134.049 318.477 134.049C320.764 134.049 322.616 133.396 324.032 132.089C325.558 130.673 326.32 128.768 326.32 126.372V32.9358L322.725 30.6489V26.5652H336.124V125.392Z" fill="#0043A8"/>
<path d="M385.131 140.91H375.817V133.559H375.164C375.055 133.886 374.783 134.539 374.347 135.519C374.02 136.391 373.366 137.371 372.386 138.46C371.515 139.549 370.371 140.474 368.955 141.237C367.538 142.108 365.741 142.543 363.562 142.543C359.859 142.543 356.918 141.182 354.739 138.46C352.669 135.628 351.634 131.272 351.634 125.392V57.4382L348.04 55.1513V51.0676H361.111V124.738C361.111 127.896 361.711 130.292 362.909 131.926C364.216 133.45 365.905 134.213 367.974 134.213C370.262 134.213 372.114 133.396 373.53 131.762C375.055 130.02 375.817 127.896 375.817 125.392V51.0676H385.131V140.91Z" fill="#0043A8"/>
<path d="M401.42 57.4382L397.825 55.1513V51.0676H410.897V58.4183H411.388C411.496 58.0916 411.714 57.4927 412.041 56.6215C412.477 55.6414 413.13 54.6068 414.002 53.5179C414.982 52.4289 416.181 51.5032 417.597 50.7409C419.122 49.8697 420.974 49.4341 423.152 49.4341C426.747 49.4341 429.579 50.8498 431.649 53.6812C433.828 56.4037 434.917 60.7052 434.917 66.5858V140.91H425.603V67.2392C425.603 64.0811 424.95 61.6853 423.643 60.0518C422.335 58.4183 420.647 57.6016 418.577 57.6016C416.29 57.6016 414.438 58.4728 413.022 60.2152C411.605 61.9576 410.897 64.0811 410.897 66.5858V140.91H401.42V57.4382Z" fill="#0043A8"/>
<path d="M451.206 57.4382L447.611 55.1513V51.0676H460.683V58.4183H461.173C461.282 58.0916 461.5 57.4927 461.827 56.6215C462.263 55.6414 462.916 54.6068 463.788 53.5179C464.768 52.4289 465.966 51.5032 467.383 50.7409C468.908 49.8697 470.76 49.4341 472.938 49.4341C476.533 49.4341 479.365 50.8498 481.435 53.6812C483.614 56.4037 484.703 60.7052 484.703 66.5858V140.91H475.389V67.2392C475.389 64.0811 474.736 61.6853 473.428 60.0518C472.121 58.4183 470.433 57.6016 468.363 57.6016C466.076 57.6016 464.223 58.4728 462.807 60.2152C461.391 61.9576 460.683 64.0811 460.683 66.5858V140.91H451.206V57.4382Z" fill="#0043A8"/>
<path d="M499.358 66.4225C499.358 61.522 500.883 57.4927 503.933 54.3346C506.983 51.0676 511.068 49.4341 516.188 49.4341C521.199 49.4341 525.23 51.0676 528.28 54.3346C531.33 57.4927 532.855 61.522 532.855 66.4225V125.392C532.855 130.401 531.33 134.539 528.28 137.806C525.23 140.964 521.145 142.543 516.025 142.543C511.014 142.543 506.983 140.964 503.933 137.806C500.883 134.539 499.358 130.401 499.358 125.392V66.4225ZM516.188 134.539C518.367 134.539 520.11 133.777 521.417 132.252C522.833 130.728 523.541 128.876 523.541 126.698V65.279C523.541 63.101 522.833 61.2497 521.417 59.7251C520.11 58.2005 518.312 57.4382 516.025 57.4382C513.846 57.4382 512.103 58.2005 510.796 59.7251C509.489 61.2497 508.835 63.101 508.835 65.279V126.698C508.835 128.876 509.489 130.728 510.796 132.252C512.212 133.777 514.009 134.539 516.188 134.539Z" fill="#0043A8"/>
<path d="M542.685 51.0676H549.874V38.8164H559.351V51.0676H572.75V59.0717H559.351V124.575C559.351 130.129 561.748 132.906 566.541 132.906H572.75V140.91H567.031C555.593 140.91 549.874 134.812 549.874 122.615V59.0717H542.685V51.0676Z" fill="#0043A8"/>
<path d="M616.502 34.7326L612.253 31.7923V26.5652H636.6L645.587 106.443H646.404L655.391 26.5652H675.489V140.91H662.417V57.2749H661.763L651.959 140.91H640.031L630.227 57.2749H629.573V140.91H616.502V34.7326Z" fill="#F6911E"/>
<path d="M688.589 113.467C688.589 109.656 689.188 106.334 690.386 103.503C691.584 100.671 693.109 98.2212 694.961 96.1521C696.813 93.9741 698.774 92.0683 700.844 90.4348C703.022 88.6924 705.038 87.059 706.889 85.5344C708.741 84.0098 710.266 82.4852 711.465 80.9606C712.663 79.3271 713.262 77.5302 713.262 75.57V66.7492C713.262 64.5712 712.663 62.8832 711.465 61.6853C710.375 60.4874 708.905 59.8885 707.053 59.8885C705.201 59.8885 703.73 60.4874 702.641 61.6853C701.552 62.8832 701.007 64.4078 701.007 66.2591V77.857H689.242V68.056C689.242 62.5021 690.822 58.0372 693.981 54.6613C697.249 51.1765 701.661 49.4341 707.216 49.4341C712.772 49.4341 717.238 51.1765 720.615 54.6613C724.101 58.0372 725.844 62.6654 725.844 68.546V140.91H713.425V134.539H712.608C712.391 135.193 712.009 136.009 711.465 136.99C711.029 137.861 710.375 138.732 709.504 139.603C708.632 140.365 707.543 141.019 706.236 141.563C704.929 142.217 703.295 142.543 701.334 142.543C697.303 142.543 694.144 141.073 691.857 138.133C689.678 135.193 688.589 130.891 688.589 125.228V113.467ZM707.053 131.926C709.122 131.926 710.648 131.218 711.628 129.802C712.717 128.278 713.262 126.59 713.262 124.738V91.0883C712.39 92.504 711.247 93.8652 709.831 95.172C708.414 96.4788 707.053 97.949 705.746 99.5825C704.438 101.107 703.295 102.849 702.314 104.81C701.443 106.77 701.007 109.057 701.007 111.67V125.392C701.007 127.57 701.552 129.203 702.641 130.292C703.73 131.381 705.201 131.926 707.053 131.926Z" fill="#F6911E"/>
<path d="M764.682 140.91V68.2193C764.682 65.6057 764.082 63.6455 762.884 62.3387C761.795 61.0319 760.433 60.3785 758.799 60.3785C756.947 60.3785 755.422 61.0864 754.224 62.5021C753.026 63.8089 752.427 65.6057 752.427 67.8926V140.91H740.008V34.7326L735.76 31.7923V26.5652H752.427V58.745H753.244C753.244 58.6361 753.407 58.0916 753.734 57.1115C754.17 56.1314 754.823 55.0969 755.695 54.0079C756.675 52.81 757.928 51.7755 759.453 50.9043C760.978 49.9242 762.884 49.4341 765.172 49.4341C768.876 49.4341 771.817 50.8498 773.995 53.6812C776.174 56.4037 777.263 60.8142 777.263 66.9125V140.91H764.682Z" fill="#F6911E"/>
<path d="M790.394 113.467C790.394 109.656 790.993 106.334 792.192 103.503C793.39 100.671 794.915 98.2212 796.767 96.1521C798.619 93.9741 800.579 92.0683 802.649 90.4348C804.828 88.6924 806.843 87.059 808.695 85.5344C810.547 84.0098 812.072 82.4852 813.27 80.9606C814.468 79.3271 815.068 77.5302 815.068 75.57V66.7492C815.068 64.5712 814.468 62.8832 813.27 61.6853C812.181 60.4874 810.71 59.8885 808.858 59.8885C807.007 59.8885 805.536 60.4874 804.447 61.6853C803.357 62.8832 802.813 64.4078 802.813 66.2591V77.857H791.048V68.056C791.048 62.5021 792.627 58.0372 795.786 54.6613C799.054 51.1765 803.466 49.4341 809.022 49.4341C814.577 49.4341 819.044 51.1765 822.421 54.6613C825.906 58.0372 827.649 62.6654 827.649 68.546V140.91H815.231V134.539H814.414C814.196 135.193 813.815 136.009 813.27 136.99C812.834 137.861 812.181 138.732 811.309 139.603C810.438 140.365 809.349 141.019 808.041 141.563C806.734 142.217 805.1 142.543 803.139 142.543C799.109 142.543 795.95 141.073 793.662 138.133C791.484 135.193 790.394 130.891 790.394 125.228V113.467ZM808.858 131.926C810.928 131.926 812.453 131.218 813.434 129.802C814.523 128.278 815.068 126.59 815.068 124.738V91.0883C814.196 92.504 813.052 93.8652 811.636 95.172C810.22 96.4788 808.858 97.949 807.551 99.5825C806.244 101.107 805.1 102.849 804.12 104.81C803.248 106.77 802.813 109.057 802.813 111.67V125.392C802.813 127.57 803.357 129.203 804.447 130.292C805.536 131.381 807.007 131.926 808.858 131.926Z" fill="#F6911E"/>
<path d="M840.67 51.0676H873.677V61.522L851.781 130.292H873.677V140.91H839.2V130.456L861.095 61.522H840.67V51.0676Z" fill="#F6911E"/>
<path d="M886.136 113.467C886.136 109.656 886.735 106.334 887.933 103.503C889.132 100.671 890.657 98.2212 892.509 96.1521C894.36 93.9741 896.321 92.0683 898.391 90.4348C900.57 88.6924 902.585 87.059 904.437 85.5344C906.289 84.0098 907.814 82.4852 909.012 80.9606C910.21 79.3271 910.809 77.5302 910.809 75.57V66.7492C910.809 64.5712 910.21 62.8832 909.012 61.6853C907.923 60.4874 906.452 59.8885 904.6 59.8885C902.748 59.8885 901.278 60.4874 900.188 61.6853C899.099 62.8832 898.554 64.4078 898.554 66.2591V77.857H886.79V68.056C886.79 62.5021 888.369 58.0372 891.528 54.6613C894.796 51.1765 899.208 49.4341 904.763 49.4341C910.319 49.4341 914.785 51.1765 918.162 54.6613C921.648 58.0372 923.391 62.6654 923.391 68.546V140.91H910.973V134.539H910.156C909.938 135.193 909.557 136.009 909.012 136.99C908.576 137.861 907.922 138.732 907.051 139.603C906.18 140.365 905.09 141.019 903.783 141.563C902.476 142.217 900.842 142.543 898.881 142.543C894.851 142.543 891.692 141.073 889.404 138.133C887.225 135.193 886.136 130.891 886.136 125.228V113.467ZM904.6 131.926C906.67 131.926 908.195 131.218 909.175 129.802C910.265 128.278 910.809 126.59 910.809 124.738V91.0883C909.938 92.504 908.794 93.8652 907.378 95.172C905.962 96.4788 904.6 97.949 903.293 99.5825C901.986 101.107 900.842 102.849 899.861 104.81C898.99 106.77 898.554 109.057 898.554 111.67V125.392C898.554 127.57 899.099 129.203 900.188 130.292C901.278 131.381 902.748 131.926 904.6 131.926Z" fill="#F6911E"/>
<path d="M933.307 51.0676H949.974V58.9084H950.791C950.791 58.6906 950.954 58.1461 951.281 57.2749C951.717 56.4037 952.37 55.5325 953.242 54.6613C954.113 53.6812 955.257 52.8644 956.673 52.211C958.198 51.4487 960.05 51.0676 962.229 51.0676H966.314V61.522H957.164C952.371 61.522 949.974 64.6801 949.974 70.9962V140.91H937.556V59.2351L933.307 56.2948V51.0676Z" fill="#F6911E"/>
<path d="M973.74 113.467C973.74 109.656 974.339 106.334 975.537 103.503C976.735 100.671 978.26 98.2212 980.112 96.1521C981.964 93.9741 983.925 92.0683 985.995 90.4348C988.173 88.6924 990.188 87.059 992.04 85.5344C993.892 84.0098 995.417 82.4852 996.615 80.9606C997.814 79.3271 998.413 77.5302 998.413 75.57V66.7492C998.413 64.5712 997.814 62.8832 996.615 61.6853C995.526 60.4874 994.056 59.8885 992.204 59.8885C990.352 59.8885 988.881 60.4874 987.792 61.6853C986.703 62.8832 986.158 64.4078 986.158 66.2591V77.857H974.393V68.056C974.393 62.5021 975.973 58.0372 979.132 54.6613C982.4 51.1765 986.811 49.4341 992.367 49.4341C997.923 49.4341 1002.39 51.1765 1005.77 54.6613C1009.25 58.0372 1010.99 62.6654 1010.99 68.546V140.91H998.576V134.539H997.759C997.541 135.193 997.16 136.009 996.615 136.99C996.18 137.861 995.526 138.732 994.655 139.603C993.783 140.365 992.694 141.019 991.387 141.563C990.08 142.217 988.446 142.543 986.485 142.543C982.454 142.543 979.295 141.073 977.008 138.133C974.829 135.193 973.74 130.891 973.74 125.228V113.467ZM992.204 131.926C994.273 131.926 995.799 131.218 996.779 129.802C997.868 128.278 998.413 126.59 998.413 124.738V91.0883C997.541 92.504 996.398 93.8652 994.981 95.172C993.565 96.4788 992.204 97.949 990.896 99.5825C989.589 101.107 988.445 102.849 987.465 104.81C986.594 106.77 986.158 109.057 986.158 111.67V125.392C986.158 127.57 986.703 129.203 987.792 130.292C988.881 131.381 990.352 131.926 992.204 131.926Z" fill="#F6911E"/>
<path d="M325.906 184.411L323.598 182.813V179.972H337.007C340.204 179.972 342.75 180.919 344.644 182.813C346.539 184.707 347.486 187.281 347.486 190.536V203.498C347.486 206.871 346.509 209.594 344.555 211.665C342.661 213.677 340.145 214.684 337.007 214.684H333.011V242.116H325.906V184.411ZM336.119 208.647C337.481 208.647 338.517 208.203 339.227 207.315C339.997 206.427 340.382 205.125 340.382 203.409V190.359C340.382 188.997 339.967 187.932 339.138 187.163C338.369 186.393 337.362 186.009 336.119 186.009H333.011V208.647H336.119Z" fill="#0043A8"/>
<path d="M382.149 179.972H391.562V208.025H398.933V179.972H406.038V242.116H398.933V214.062H391.562V242.116H384.458V184.411L382.149 182.813V179.972Z" fill="#0043A8"/>
<path d="M443.336 189.56C443.336 186.423 444.313 183.908 446.267 182.014C448.22 180.061 450.944 179.084 454.437 179.084C457.633 179.084 460.179 180.061 462.074 182.014C463.968 183.908 464.916 186.423 464.916 189.56V232.439C464.916 235.635 463.939 238.209 461.985 240.163C460.031 242.056 457.278 243.003 453.726 243.003C450.588 243.003 448.072 242.056 446.178 240.163C444.283 238.209 443.336 235.635 443.336 232.439V189.56ZM454.081 236.967C455.147 236.967 456.035 236.611 456.746 235.901C457.456 235.191 457.811 234.303 457.811 233.238V188.849C457.811 187.784 457.456 186.896 456.746 186.186C456.094 185.476 455.206 185.121 454.081 185.121C452.956 185.121 452.068 185.476 451.417 186.186C450.766 186.896 450.44 187.784 450.44 188.849V233.238C450.44 234.303 450.766 235.191 451.417 235.901C452.068 236.611 452.956 236.967 454.081 236.967Z" fill="#0043A8"/>
<path d="M499.862 179.972H521.886V186.009H514.426V242.116H507.322V186.009H499.862V179.972Z" fill="#0043A8"/>
<path d="M556.798 189.56C556.798 186.423 557.774 183.908 559.728 182.014C561.682 180.061 564.405 179.084 567.898 179.084C571.095 179.084 573.641 180.061 575.535 182.014C577.43 183.908 578.377 186.423 578.377 189.56V232.439C578.377 235.635 577.4 238.209 575.447 240.163C573.493 242.056 570.74 243.003 567.188 243.003C564.05 243.003 561.534 242.056 559.639 240.163C557.745 238.209 556.798 235.635 556.798 232.439V189.56ZM567.543 236.967C568.609 236.967 569.497 236.611 570.207 235.901C570.917 235.191 571.273 234.303 571.273 233.238V188.849C571.273 187.784 570.917 186.896 570.207 186.186C569.556 185.476 568.668 185.121 567.543 185.121C566.418 185.121 565.53 185.476 564.879 186.186C564.228 186.896 563.902 187.784 563.902 188.849V233.238C563.902 234.303 564.228 235.191 564.879 235.901C565.53 236.611 566.418 236.967 567.543 236.967Z" fill="#0043A8"/>
<path d="M625.13 211.399H636.408V242.116H632.146V236.523H631.702C631.524 238.357 630.695 239.896 629.215 241.139C627.794 242.382 626.018 243.003 623.887 243.003C621.045 243.003 618.825 242.056 617.227 240.163C615.628 238.269 614.829 235.694 614.829 232.439V189.648C614.829 186.452 615.806 183.908 617.759 182.014C619.713 180.061 622.436 179.084 625.929 179.084C629.126 179.084 631.672 180.061 633.567 182.014C635.461 183.908 636.408 186.423 636.408 189.56V200.834H629.304V188.849C629.304 187.784 628.949 186.896 628.238 186.186C627.587 185.476 626.699 185.121 625.574 185.121C624.449 185.121 623.561 185.476 622.91 186.186C622.259 186.896 621.933 187.784 621.933 188.849V233.238C621.933 234.303 622.259 235.191 622.91 235.901C623.62 236.611 624.509 236.967 625.574 236.967C626.699 236.967 627.587 236.641 628.238 235.99C628.949 235.28 629.304 234.392 629.304 233.327V217.436H625.13V211.399Z" fill="#0043A8"/>
<path d="M674.355 184.411L672.046 182.813V179.972H685.456C688.653 179.972 691.198 180.948 693.093 182.901C694.987 184.795 695.935 187.37 695.935 190.625V200.834C695.935 203.853 695.313 206.131 694.07 207.67C692.886 209.15 691.287 210.215 689.274 210.866V211.31C690.932 211.902 692.116 212.878 692.827 214.24C693.596 215.601 694.129 217.376 694.425 219.566L697.178 242.116H690.074L687.321 218.235C687.143 216.873 686.699 215.779 685.989 214.95C685.337 214.121 684.361 213.707 683.058 213.707H681.46V242.116H674.355V184.411ZM684.39 208.114C685.693 208.114 686.758 207.7 687.587 206.871C688.416 206.043 688.83 204.8 688.83 203.143V190.536C688.83 189.116 688.416 188.021 687.587 187.251C686.817 186.423 685.811 186.009 684.568 186.009H681.46V208.114H684.39Z" fill="#0043A8"/>
<path d="M734.743 179.972H750.639L756.677 242.116H749.573L748.063 226.313H739.893L738.472 242.116H731.279L736.785 184.233L734.743 182.813V179.972ZM747.53 220.277L744.245 186.009H743.534L740.426 220.277H747.53Z" fill="#0043A8"/>
<path d="M791.979 184.411L789.67 182.813V179.972H803.08C806.277 179.972 808.822 180.919 810.717 182.813C812.611 184.707 813.558 187.281 813.558 190.536V203.498C813.558 206.871 812.582 209.594 810.628 211.665C808.733 213.677 806.217 214.684 803.08 214.684H799.083V242.116H791.979V184.411ZM802.192 208.647C803.553 208.647 804.589 208.203 805.3 207.315C806.069 206.427 806.454 205.125 806.454 203.409V190.359C806.454 188.997 806.04 187.932 805.211 187.163C804.441 186.393 803.435 186.009 802.192 186.009H799.083V208.647H802.192Z" fill="#0043A8"/>
<path d="M848.222 179.972H857.635V208.025H865.006V179.972H872.11V242.116H865.006V214.062H857.635V242.116H850.531V184.411L848.222 182.813V179.972Z" fill="#0043A8"/>
<path d="M910.296 184.411L907.988 182.813V179.972H926.903V186.009H917.401V208.025H925.393V214.062H917.401V236.079H926.903V242.116H910.296V184.411Z" fill="#0043A8"/>
<path d="M963.818 184.411L961.509 182.813V179.972H974.919C978.116 179.972 980.661 180.948 982.556 182.901C984.45 184.795 985.397 187.37 985.397 190.625V200.834C985.397 203.853 984.776 206.131 983.533 207.67C982.349 209.15 980.75 210.215 978.737 210.866V211.31C980.395 211.902 981.579 212.878 982.289 214.24C983.059 215.601 983.592 217.376 983.888 219.566L986.641 242.116H979.536L976.783 218.235C976.606 216.873 976.162 215.779 975.451 214.95C974.8 214.121 973.823 213.707 972.521 213.707H970.922V242.116H963.818V184.411ZM973.853 208.114C975.155 208.114 976.221 207.7 977.05 206.871C977.879 206.043 978.293 204.8 978.293 203.143V190.536C978.293 189.116 977.879 188.021 977.05 187.251C976.28 186.423 975.274 186.009 974.031 186.009H970.922V208.114H973.853Z" fill="#0043A8"/>
</svg>
