<svg width="1031" height="273" viewBox="0 0 1031 273" fill="none" xmlns="http://www.w3.org/2000/svg">
<path d="M230.586 217V112.189H259.013V217H230.586ZM259.013 159.061L247.946 151.683C249.248 138.808 253.009 128.681 259.23 121.303C265.451 113.78 274.42 110.019 286.138 110.019C291.201 110.019 295.758 110.887 299.809 112.623C303.86 114.214 307.549 116.891 310.876 120.652L293.082 141.05C291.491 139.314 289.538 138.012 287.223 137.144C285.053 136.276 282.521 135.842 279.628 135.842C273.552 135.842 268.561 137.795 264.655 141.701C260.894 145.462 259.013 151.249 259.013 159.061ZM369.107 219.17C357.823 219.17 347.768 216.783 338.944 212.009C330.264 207.09 323.392 200.508 318.329 192.262C313.41 184.016 310.951 174.685 310.951 164.269C310.951 153.998 313.41 144.811 318.329 136.71C323.392 128.464 330.119 121.954 338.51 117.18C347.045 112.261 356.665 109.802 367.371 109.802C378.655 109.802 388.13 112.334 395.798 117.397C403.465 122.316 409.541 129.404 414.026 138.663L351.313 200.291L335.906 184.667L392.543 129.115L391.675 149.079C389.794 144.305 386.901 140.616 382.995 138.012C379.233 135.408 374.17 134.106 367.805 134.106C361.729 134.106 356.448 135.408 351.964 138.012C347.479 140.471 344.007 143.943 341.548 148.428C339.233 152.913 338.076 158.048 338.076 163.835C338.076 170.056 339.378 175.553 341.982 180.327C344.586 184.956 348.202 188.573 352.832 191.177C357.606 193.781 363.175 195.083 369.541 195.083C375.183 195.083 380.174 194.215 384.514 192.479C388.854 190.598 392.687 187.85 396.015 184.233L412.724 200.942C407.371 207.018 400.933 211.575 393.411 214.613C386.033 217.651 377.931 219.17 369.107 219.17ZM479.897 219.17C469.192 219.17 459.571 216.783 451.036 212.009C442.501 207.235 435.774 200.725 430.855 192.479C425.936 184.233 423.477 174.974 423.477 164.703C423.477 154.287 425.936 144.956 430.855 136.71C435.774 128.464 442.501 121.954 451.036 117.18C459.716 112.261 469.336 109.802 479.897 109.802C488.143 109.802 495.738 111.321 502.682 114.359C509.626 117.397 515.63 121.737 520.693 127.379L502.465 145.824C499.716 142.786 496.389 140.471 492.483 138.88C488.722 137.289 484.526 136.493 479.897 136.493C474.689 136.493 469.987 137.723 465.792 140.182C461.741 142.497 458.486 145.752 456.027 149.947C453.712 153.998 452.555 158.844 452.555 164.486C452.555 169.983 453.712 174.902 456.027 179.242C458.486 183.437 461.741 186.765 465.792 189.224C469.987 191.539 474.689 192.696 479.897 192.696C484.671 192.696 488.939 191.9 492.7 190.309C496.606 188.573 499.933 186.114 502.682 182.931L521.127 201.376C515.774 207.163 509.626 211.575 502.682 214.613C495.738 217.651 488.143 219.17 479.897 219.17ZM570.21 217.868L526.376 112.189H557.19L586.268 192.913H575.852L606.015 112.189H637.046L590.391 217.651L570.21 217.868ZM541.132 260.834L573.031 193.347L590.391 217.651L571.295 260.834H541.132ZM696.261 219.17C685.556 219.17 675.936 216.783 667.4 212.009C658.865 207.235 652.138 200.725 647.219 192.479C642.301 184.233 639.841 174.974 639.841 164.703C639.841 154.287 642.301 144.956 647.219 136.71C652.138 128.464 658.865 121.954 667.4 117.18C676.08 112.261 685.701 109.802 696.261 109.802C704.507 109.802 712.102 111.321 719.046 114.359C725.99 117.397 731.994 121.737 737.057 127.379L718.829 145.824C716.081 142.786 712.753 140.471 708.847 138.88C705.086 137.289 700.891 136.493 696.261 136.493C691.053 136.493 686.352 137.723 682.156 140.182C678.106 142.497 674.851 145.752 672.391 149.947C670.077 153.998 668.919 158.844 668.919 164.486C668.919 169.983 670.077 174.902 672.391 179.242C674.851 183.437 678.106 186.765 682.156 189.224C686.352 191.539 691.053 192.696 696.261 192.696C701.035 192.696 705.303 191.9 709.064 190.309C712.97 188.573 716.298 186.114 719.046 182.931L737.491 201.376C732.139 207.163 725.99 211.575 719.046 214.613C712.102 217.651 704.507 219.17 696.261 219.17ZM753.59 217V60.109H782.017V217H753.59ZM858.416 219.17C847.132 219.17 837.078 216.783 828.253 212.009C819.573 207.09 812.701 200.508 807.638 192.262C802.719 184.016 800.26 174.685 800.26 164.269C800.26 153.998 802.719 144.811 807.638 136.71C812.701 128.464 819.428 121.954 827.819 117.18C836.355 112.261 845.975 109.802 856.68 109.802C867.964 109.802 877.44 112.334 885.107 117.397C892.775 122.316 898.851 129.404 903.335 138.663L840.622 200.291L825.215 184.667L881.852 129.115L880.984 149.079C879.104 144.305 876.21 140.616 872.304 138.012C868.543 135.408 863.48 134.106 857.114 134.106C851.038 134.106 845.758 135.408 841.273 138.012C836.788 140.471 833.317 143.943 830.857 148.428C828.542 152.913 827.385 158.048 827.385 163.835C827.385 170.056 828.687 175.553 831.291 180.327C833.895 184.956 837.512 188.573 842.141 191.177C846.915 193.781 852.485 195.083 858.85 195.083C864.492 195.083 869.483 194.215 873.823 192.479C878.163 190.598 881.997 187.85 885.324 184.233L902.033 200.942C896.681 207.018 890.243 211.575 882.72 214.613C875.342 217.651 867.241 219.17 858.416 219.17ZM968.99 219.17C958.429 219.17 948.881 216.783 940.346 212.009C931.955 207.09 925.228 200.508 920.165 192.262C915.246 183.871 912.787 174.54 912.787 164.269C912.787 153.998 915.246 144.811 920.165 136.71C925.083 128.464 931.81 121.954 940.346 117.18C948.881 112.261 958.357 109.802 968.773 109.802C979.478 109.802 989.026 112.261 997.417 117.18C1005.95 121.954 1012.68 128.464 1017.6 136.71C1022.52 144.811 1024.98 153.998 1024.98 164.269C1024.98 174.54 1022.52 183.871 1017.6 192.262C1012.68 200.508 1005.95 207.09 997.417 212.009C989.026 216.783 979.55 219.17 968.99 219.17ZM968.773 192.696C974.125 192.696 978.827 191.539 982.878 189.224C987.073 186.765 990.256 183.437 992.426 179.242C994.74 174.902 995.898 169.983 995.898 164.486C995.898 158.989 994.74 154.142 992.426 149.947C990.111 145.752 986.928 142.497 982.878 140.182C978.827 137.723 974.125 136.493 968.773 136.493C963.565 136.493 958.935 137.723 954.885 140.182C950.834 142.497 947.651 145.752 945.337 149.947C943.022 154.142 941.865 158.989 941.865 164.486C941.865 169.983 943.022 174.902 945.337 179.242C947.651 183.437 950.834 186.765 954.885 189.224C958.935 191.539 963.565 192.696 968.773 192.696Z" fill="white"/>
<path d="M85.543 244.51C88.2392 246.885 92.2817 246.903 94.9986 244.551L139.594 205.949C145.126 201.16 140.758 192.153 133.56 193.507L91.5228 201.413C90.4253 201.62 89.2948 201.568 88.221 201.262L42.1909 188.144C34.8393 186.049 29.7372 195.345 35.4678 200.393L85.543 244.51Z" fill="url(#paint0_radial_459_4553)"/>
<path d="M90.6515 222.409C124.04 222.409 152.82 201.784 165.97 172.055C155.007 186.269 138.201 195.364 119.361 195.364C108.794 195.364 98.8676 192.503 90.2527 187.483C81.6379 192.503 71.7113 195.364 61.1447 195.364C43.331 195.364 27.3362 187.233 16.3791 174.333C29.9675 202.832 58.1226 222.409 90.6515 222.409Z" fill="url(#paint1_radial_459_4553)"/>
<path fill-rule="evenodd" clip-rule="evenodd" d="M16.3783 174.333C10.9478 162.943 7.84393 150.128 7.71729 136.569L31.3076 166.728L59.6657 136.839C60.9586 158.638 72.9642 177.409 90.2528 187.483C81.638 192.503 71.7114 195.364 61.1448 195.364C43.3307 195.364 27.3355 187.233 16.3783 174.333Z" fill="#80D1D4"/>
<path fill-rule="evenodd" clip-rule="evenodd" d="M7.93649 142.115C7.78853 139.998 7.71326 137.861 7.71326 135.705C7.71326 116.241 13.848 98.2751 24.2063 83.8052C34.3765 75.4568 47.2036 70.4773 61.1446 70.4773C71.7111 70.4773 81.6377 73.338 90.2526 78.3579C71.9361 89.0312 59.5496 109.466 59.5496 132.92C59.5496 136.046 59.7696 139.119 60.1943 142.121L59.3588 141.37L32.9001 167.508L7.93649 142.115Z" fill="url(#paint2_linear_459_4553)"/>
<path fill-rule="evenodd" clip-rule="evenodd" d="M165.97 172.056C170.86 161 173.589 148.685 173.589 135.705C173.589 116.997 167.922 99.6741 158.285 85.5083C147.823 76.1385 134.225 70.4773 119.361 70.4773C108.794 70.4773 98.8675 73.338 90.2526 78.3579C108.569 89.0312 120.956 109.466 120.956 132.92C120.956 156.375 108.569 176.81 90.2526 187.483C98.8675 192.503 108.794 195.364 119.361 195.364C138.201 195.364 155.007 186.269 165.97 172.056Z" fill="#3EAFB3"/>
<path fill-rule="evenodd" clip-rule="evenodd" d="M119.36 70.4773C134.225 70.4773 147.824 76.1386 158.285 85.5087C143.253 63.4134 118.562 49 90.6512 49C63.4642 49 39.3325 62.6752 24.2067 83.8046C34.3768 75.4566 47.2036 70.4773 61.1444 70.4773C71.7109 70.4773 81.6375 73.3379 90.2524 78.3579C98.8672 73.3379 108.794 70.4773 119.36 70.4773Z" fill="url(#paint3_radial_459_4553)"/>
<rect width="7.44989" height="45.169" transform="matrix(0.708005 -0.706207 -0.71937 -0.694627 32.4932 168.207)" fill="#1A3232"/>
<rect width="7.39295" height="49.7004" transform="matrix(-0.708005 -0.706207 -0.718929 0.695084 72.2768 129.573)" fill="#1A3232"/>
<defs>
<radialGradient id="paint0_radial_459_4553" cx="0" cy="0" r="1" gradientUnits="userSpaceOnUse" gradientTransform="translate(83.8728 144.852) rotate(85.8417) scale(104.48 310.381)">
<stop stop-color="#80D1D4"/>
<stop offset="1" stop-color="#3EAFB3"/>
</radialGradient>
<radialGradient id="paint1_radial_459_4553" cx="0" cy="0" r="1" gradientUnits="userSpaceOnUse" gradientTransform="translate(83.8728 144.852) rotate(85.8417) scale(104.48 310.381)">
<stop stop-color="#80D1D4"/>
<stop offset="1" stop-color="#3EAFB3"/>
</radialGradient>
<linearGradient id="paint2_linear_459_4553" x1="32.4807" y1="52.6259" x2="48.9828" y2="167.508" gradientUnits="userSpaceOnUse">
<stop stop-color="#3EAFB3"/>
<stop offset="1" stop-color="#B1EAEC"/>
</linearGradient>
<radialGradient id="paint3_radial_459_4553" cx="0" cy="0" r="1" gradientUnits="userSpaceOnUse" gradientTransform="translate(35.6252 8.82943) rotate(60.4096) scale(182.495 975.178)">
<stop stop-color="#8DD7DA"/>
<stop offset="1" stop-color="#3EAFB3"/>
</radialGradient>
</defs>
</svg>
