<svg width="125" height="105" viewBox="0 0 125 105" fill="none" xmlns="http://www.w3.org/2000/svg">
<g filter="url(#filter0_ii_101_564)">
<path d="M34.0938 104.059C33.2734 104.059 32.4987 103.922 31.7695 103.648C31.0859 103.421 30.4935 103.124 29.9922 102.76C29.5365 102.395 29.1719 101.985 28.8984 101.529C28.625 101.119 28.4883 100.732 28.4883 100.367C28.4883 100.048 28.5794 99.6608 28.7617 99.2051C28.9896 98.7493 29.2402 98.3164 29.5137 97.9062C29.8327 97.4961 30.1289 97.1543 30.4023 96.8809C30.7214 96.6074 30.972 96.4707 31.1543 96.4707C31.3822 96.4707 31.5189 96.5618 31.5645 96.7441C31.61 96.8809 31.6328 97.0632 31.6328 97.291C31.6784 97.4733 31.724 97.6784 31.7695 97.9062C31.8151 98.1341 31.9518 98.3164 32.1797 98.4531C32.681 98.7266 33.2734 98.9544 33.957 99.1367C34.6862 99.319 35.8711 99.4102 37.5117 99.4102C39.6081 99.4102 41.5677 99.0911 43.3906 98.4531C45.2591 97.7695 46.877 96.8809 48.2441 95.7871C49.6569 94.6478 50.7507 93.3262 51.5254 91.8223C52.3457 90.3184 52.7559 88.7005 52.7559 86.9688C52.7559 84.599 52.0039 82.7077 50.5 81.2949C49.0417 79.8822 47.082 78.7428 44.6211 77.877C42.2057 76.9655 39.4258 76.2363 36.2812 75.6895C33.1823 75.1426 30.015 74.5501 26.7793 73.9121C23.5436 73.2285 20.3535 72.3854 17.209 71.3828C14.11 70.3346 11.3301 68.9219 8.86914 67.1445C6.45378 65.3672 4.49414 63.0885 2.99023 60.3086C1.5319 57.5286 0.802734 54.0423 0.802734 49.8496C0.802734 45.1556 1.75977 40.6895 3.67383 36.4512C5.58789 32.1673 8.16276 28.2025 11.3984 24.5566C14.6341 20.9108 18.3483 17.6296 22.541 14.7129C26.7337 11.7962 31.1087 9.3125 35.666 7.26172C40.2233 5.21094 44.8034 3.63867 49.4062 2.54492C54.0547 1.4056 58.3841 0.835938 62.3945 0.835938C68.8659 0.835938 73.7878 1.99805 77.1602 4.32227C80.5781 6.60091 82.2871 10.0189 82.2871 14.5762C82.2871 16.627 81.8086 18.5866 80.8516 20.4551C79.8945 22.3236 78.8236 24.0098 77.6387 25.5137C76.4538 26.972 75.3145 28.2025 74.2207 29.2051C73.1725 30.1621 72.5345 30.7546 72.3066 30.9824L71.8965 30.3672C71.9421 30.3216 72.3522 29.8887 73.127 29.0684C73.9017 28.248 74.722 27.1999 75.5879 25.9238C76.4538 24.6478 77.2513 23.235 77.9805 21.6855C78.7096 20.1361 79.0742 18.5638 79.0742 16.9688C79.0742 13.2773 77.5475 10.543 74.4941 8.76562C71.4408 6.94271 66.9974 6.03125 61.1641 6.03125C55.1484 6.03125 49.543 6.73763 44.3477 8.15039C39.1523 9.56315 34.39 11.4544 30.0605 13.8242C25.7767 16.1484 21.9486 18.8372 18.5762 21.8906C15.2493 24.944 12.4238 28.0885 10.0996 31.3242C7.82096 34.5599 6.06641 37.7728 4.83594 40.9629C3.65104 44.153 3.05859 47.0697 3.05859 49.7129C3.05859 53.2676 3.81055 56.1842 5.31445 58.4629C6.81836 60.696 8.80078 62.5417 11.2617 64C13.7227 65.4128 16.5026 66.5065 19.6016 67.2812C22.7461 68.056 25.959 68.7396 29.2402 69.332C32.5215 69.9245 35.7116 70.5397 38.8105 71.1777C41.9551 71.7702 44.7578 72.6133 47.2188 73.707C49.6797 74.7552 51.6621 76.168 53.166 77.9453C54.6699 79.6771 55.4219 81.9785 55.4219 84.8496C55.4219 87.4928 54.9889 89.7943 54.123 91.7539C53.3027 93.7135 52.2318 95.3997 50.9102 96.8125C49.5885 98.2253 48.1074 99.3874 46.4668 100.299C44.8717 101.256 43.2767 102.008 41.6816 102.555C40.0866 103.102 38.6055 103.489 37.2383 103.717C35.9167 103.945 34.8685 104.059 34.0938 104.059ZM76.6816 94.6934C77.7754 94.6934 78.8464 94.4655 79.8945 94.0098C80.9427 93.5085 81.877 92.8021 82.6973 91.8906C83.5176 90.9336 84.1556 89.7715 84.6113 88.4043C85.1126 87.0371 85.3633 85.4421 85.3633 83.6191C85.3633 82.1152 85.181 80.7025 84.8164 79.3809C84.4518 78.0137 83.9049 76.8288 83.1758 75.8262C82.4922 74.8236 81.5807 74.026 80.4414 73.4336C79.3477 72.8411 78.0488 72.5449 76.5449 72.5449C75.4967 72.5449 74.4486 72.75 73.4004 73.1602C72.3522 73.5247 71.418 74.14 70.5977 75.0059C69.7773 75.8262 69.1165 76.8971 68.6152 78.2188C68.1139 79.4948 67.8633 81.0443 67.8633 82.8672C67.8633 84.3255 68.0456 85.7611 68.4102 87.1738C68.7747 88.541 69.2988 89.7943 69.9824 90.9336C70.7116 92.0729 71.623 92.9844 72.7168 93.668C73.8561 94.3516 75.1777 94.6934 76.6816 94.6934ZM74.2891 98.1797C71.2812 98.1797 68.8203 97.1999 66.9062 95.2402C64.9922 93.235 64.0352 90.3411 64.0352 86.5586C64.0352 84.0065 64.5137 81.6595 65.4707 79.5176C66.4277 77.3301 67.6582 75.4616 69.1621 73.9121C70.7116 72.3171 72.4206 71.0866 74.2891 70.2207C76.1576 69.3548 77.9805 68.9219 79.7578 68.9219C82.6289 68.9219 84.9303 69.9017 86.6621 71.8613C88.3939 73.821 89.2598 76.7148 89.2598 80.543C89.2598 83.0951 88.804 85.4421 87.8926 87.584C87.0267 89.7259 85.8646 91.5944 84.4062 93.1895C82.9935 94.7389 81.3984 95.9694 79.6211 96.8809C77.8438 97.7467 76.0664 98.1797 74.2891 98.1797ZM110.528 75.3477C110.118 75.3477 109.73 75.1198 109.366 74.6641C109.047 74.1628 108.614 73.6387 108.067 73.0918C107.52 72.5449 106.814 72.0436 105.948 71.5879C105.127 71.0866 104.034 70.8359 102.666 70.8359C100.752 70.8359 98.975 71.3372 97.3344 72.3398C95.6937 73.2969 94.281 74.5273 93.0961 76.0312C91.9112 77.4896 90.977 79.1074 90.2934 80.8848C89.6553 82.6165 89.3363 84.2572 89.3363 85.8066C89.3363 88.222 89.9516 90.2044 91.182 91.7539C92.4125 93.3034 94.0531 94.0781 96.1039 94.0781C97.699 94.0781 99.0889 93.7819 100.274 93.1895C101.504 92.5514 102.53 91.7311 103.35 90.7285C103.077 89.498 102.94 87.9714 102.94 86.1484C102.94 84.1888 103.077 82.5938 103.35 81.3633C103.669 80.1328 104.034 79.1758 104.444 78.4922C104.899 77.8086 105.355 77.3529 105.811 77.125C106.267 76.8516 106.654 76.7148 106.973 76.7148C107.338 76.7148 107.748 76.9655 108.204 77.4668C108.705 77.9681 108.955 78.8568 108.955 80.1328C108.955 81.7279 108.659 83.4141 108.067 85.1914C107.52 86.9232 106.745 88.5866 105.743 90.1816C106.289 91.5944 107.133 92.6198 108.272 93.2578C109.411 93.8958 110.71 94.2148 112.168 94.2148C113.444 94.2148 114.629 93.9414 115.723 93.3945C116.862 92.8021 117.911 92.0273 118.868 91.0703C119.87 90.1133 120.804 89.0195 121.67 87.7891C122.536 86.513 123.334 85.2142 124.063 83.8926L124.473 84.166C123.926 85.8978 123.197 87.584 122.286 89.2246C121.374 90.8652 120.326 92.3236 119.141 93.5996C117.956 94.8757 116.657 95.901 115.245 96.6758C113.877 97.4049 112.442 97.7695 110.938 97.7695C109.799 97.7695 108.545 97.4049 107.178 96.6758C105.857 95.901 104.763 94.5339 103.897 92.5742C102.484 94.2604 100.866 95.6732 99.0434 96.8125C97.2204 97.9062 95.2608 98.4531 93.1645 98.4531C91.9796 98.4531 90.9086 98.1797 89.9516 97.6328C88.9945 97.0859 88.1742 96.3568 87.4906 95.4453C86.8526 94.5339 86.3513 93.4629 85.9867 92.2324C85.6221 91.002 85.4398 89.7031 85.4398 88.3359C85.4398 86.0117 85.9411 83.6875 86.9437 81.3633C87.9919 79.0391 89.3591 76.9427 91.0453 75.0742C92.7771 73.2057 94.7367 71.7018 96.9242 70.5625C99.1573 69.3776 101.482 68.7852 103.897 68.7852C105.674 68.7852 107.155 68.9902 108.34 69.4004C109.571 69.765 110.551 70.2207 111.28 70.7676C112.009 71.2689 112.533 71.793 112.852 72.3398C113.171 72.8867 113.33 73.3197 113.33 73.6387C113.33 74.2767 112.989 74.7324 112.305 75.0059C111.667 75.2337 111.075 75.3477 110.528 75.3477ZM104.786 84.4395C104.786 85.9434 104.922 87.2422 105.196 88.3359C105.879 87.0599 106.381 85.7611 106.7 84.4395C107.019 83.0723 107.178 81.9102 107.178 80.9531C107.178 79.8138 106.973 79.2441 106.563 79.2441C106.153 79.2441 105.743 79.7454 105.332 80.748C104.968 81.7507 104.786 82.9811 104.786 84.4395Z" fill="#05932D"/>
</g>
<defs>
<filter id="filter0_ii_101_564" x="0.802734" y="0.835938" width="127.67" height="107.223" filterUnits="userSpaceOnUse" color-interpolation-filters="sRGB">
<feFlood flood-opacity="0" result="BackgroundImageFix"/>
<feBlend mode="normal" in="SourceGraphic" in2="BackgroundImageFix" result="shape"/>
<feColorMatrix in="SourceAlpha" type="matrix" values="0 0 0 0 0 0 0 0 0 0 0 0 0 0 0 0 0 0 127 0" result="hardAlpha"/>
<feOffset dy="4"/>
<feGaussianBlur stdDeviation="7"/>
<feComposite in2="hardAlpha" operator="arithmetic" k2="-1" k3="1"/>
<feColorMatrix type="matrix" values="0 0 0 0 1 0 0 0 0 1 0 0 0 0 1 0 0 0 0.25 0"/>
<feBlend mode="normal" in2="shape" result="effect1_innerShadow_101_564"/>
<feColorMatrix in="SourceAlpha" type="matrix" values="0 0 0 0 0 0 0 0 0 0 0 0 0 0 0 0 0 0 127 0" result="hardAlpha"/>
<feOffset dx="4" dy="4"/>
<feGaussianBlur stdDeviation="2"/>
<feComposite in2="hardAlpha" operator="arithmetic" k2="-1" k3="1"/>
<feColorMatrix type="matrix" values="0 0 0 0 0 0 0 0 0 0 0 0 0 0 0 0 0 0 0.25 0"/>
<feBlend mode="normal" in2="effect1_innerShadow_101_564" result="effect2_innerShadow_101_564"/>
</filter>
</defs>
</svg>
