<svg width="225" height="61" viewBox="0 0 225 61" fill="none" xmlns="http://www.w3.org/2000/svg">
<path d="M0.5 30.5C0.5 16.1221 0.5 8.93324 4.88847 4.46662C9.27693 0 16.3401 0 30.4663 0C44.5926 0 51.6557 0 56.0443 4.46662C60.4327 8.93324 60.4327 16.1221 60.4327 30.5C60.4327 44.8779 60.4327 52.0667 56.0443 56.5334C51.6557 61 44.5926 61 30.4663 61C16.3401 61 9.27693 61 4.88847 56.5334C0.5 52.0667 0.5 44.8779 0.5 30.5Z" fill="#242945"/>
<path d="M36.4606 37.6936C37.2881 37.6936 37.9741 38.3478 37.8097 39.1309C37.5192 40.5141 36.8135 41.7962 35.7647 42.809C34.3598 44.1657 32.4543 44.9279 30.4674 44.9279C28.4804 44.9279 26.575 44.1657 25.1701 42.809C24.1212 41.7962 23.4155 40.5141 23.1252 39.1309C22.9606 38.3478 23.6466 37.6936 24.4741 37.6936H36.4606Z" fill="#F0F0FA"/>
<path d="M49.8196 23.5663C50.6472 23.5663 51.3331 23.497 51.1687 24.2802C50.8782 25.6634 50.1725 26.9455 49.1237 27.9583C47.7189 29.315 45.8133 30.0772 43.8264 30.0772C41.8395 30.0772 39.934 29.315 38.5291 27.9583C37.4803 26.9455 36.7745 25.6634 36.4842 24.2802C36.3197 23.497 37.0056 23.5663 37.8331 23.5663L40.0824 24.6302C42.5308 25.7882 45.3608 25.765 47.7905 24.5669L49.8196 23.5663Z" fill="#F0F0FA"/>
<path d="M22.9748 24.473C22.9748 27.8419 20.2915 30.573 16.9815 30.573C13.6715 30.573 10.9882 27.8419 10.9882 24.473C10.9882 21.104 13.6715 18.373 16.9815 18.373C20.2915 18.373 22.9748 21.104 22.9748 24.473Z" fill="#F0F0FA"/>
<path d="M78.9189 27.4886H73.6059L76.7074 19.7477H80.2135L78.9189 27.4886Z" fill="#242945"/>
<path d="M91.1012 34.5158V39.1H88.8088C84.9432 39.1 83.0103 37.151 83.0103 33.2531V28.1749H81.1494V23.7005H83.0103V19.9673H88.3234V23.7005H91.0743V28.1749H88.3234V33.3355C88.3234 33.7564 88.4133 34.0583 88.5931 34.2413C88.7908 34.4243 89.1145 34.5158 89.564 34.5158H91.1012Z" fill="#242945"/>
<path d="M108.737 23.7005L99.1355 46.4291H93.3909L97.0049 38.4412L90.8018 23.7005H96.6812L99.8637 32.4296L102.938 23.7005H108.737Z" fill="#242945"/>
<path d="M119.57 39.2921C118.203 39.2921 116.981 39.0634 115.902 38.6059C114.841 38.1301 113.996 37.4896 113.367 36.6844C112.756 35.8609 112.414 34.9367 112.342 33.9119H117.466C117.538 34.406 117.763 34.7903 118.14 35.0648C118.518 35.3393 118.986 35.4766 119.543 35.4766C119.974 35.4766 120.316 35.3851 120.568 35.2021C120.819 35.0191 120.945 34.7812 120.945 34.4884C120.945 34.1041 120.739 33.8204 120.325 33.6374C119.911 33.4544 119.228 33.2531 118.275 33.0335C117.197 32.8139 116.298 32.5669 115.578 32.2924C114.859 32.0179 114.23 31.5695 113.69 30.9473C113.169 30.3251 112.908 29.4833 112.908 28.4219C112.908 27.5069 113.151 26.6834 113.637 25.9514C114.122 25.2011 114.832 24.6064 115.767 24.1672C116.72 23.728 117.862 23.5084 119.192 23.5084C121.17 23.5084 122.725 24.0025 123.858 24.9907C124.991 25.9789 125.647 27.2782 125.827 28.8886H121.053C120.963 28.3945 120.748 28.0193 120.406 27.7631C120.082 27.4886 119.642 27.3514 119.084 27.3514C118.653 27.3514 118.32 27.4337 118.087 27.5984C117.871 27.7631 117.763 27.9919 117.763 28.2847C117.763 28.6507 117.97 28.9343 118.383 29.1356C118.797 29.3186 119.462 29.5108 120.379 29.7121C121.476 29.95 122.384 30.2153 123.103 30.5081C123.84 30.8009 124.478 31.2767 125.018 31.9355C125.575 32.576 125.854 33.4544 125.854 34.5707C125.854 35.4674 125.593 36.2726 125.072 36.9863C124.568 37.7 123.84 38.2673 122.887 38.6882C121.952 39.0908 120.846 39.2921 119.57 39.2921Z" fill="#242945"/>
<path d="M143.664 23.7005L134.062 46.4291H128.318L131.932 38.4412L125.729 23.7005H131.608L134.79 32.4296L137.865 23.7005H143.664Z" fill="#242945"/>
<path d="M153.04 27.4886H147.727L150.829 19.7477H154.335L153.04 27.4886Z" fill="#242945"/>
<path d="M166.194 23.5633C167.938 23.5633 169.322 24.158 170.347 25.3475C171.372 26.5187 171.884 28.1108 171.884 30.1238V39.1H166.598V30.8375C166.598 29.9591 166.373 29.2729 165.924 28.7788C165.474 28.2664 164.872 28.0102 164.117 28.0102C163.326 28.0102 162.705 28.2664 162.256 28.7788C161.806 29.2729 161.582 29.9591 161.582 30.8375V39.1H156.296V23.7005H161.582V25.8965C162.049 25.2011 162.679 24.643 163.47 24.2221C164.261 23.7829 165.169 23.5633 166.194 23.5633Z" fill="#242945"/>
<path d="M172.843 31.3865C172.843 29.7944 173.122 28.4036 173.679 27.2141C174.254 26.0246 175.036 25.1096 176.025 24.4691C177.014 23.8286 178.111 23.5084 179.316 23.5084C180.287 23.5084 181.15 23.7188 181.905 24.1397C182.678 24.5423 183.28 25.1005 183.712 25.8142V18.787H189.025V39.1H183.712V36.9589C183.298 37.6726 182.714 38.2399 181.959 38.6608C181.203 39.0817 180.313 39.2921 179.289 39.2921C178.084 39.2921 176.987 38.9719 175.998 38.3314C175.027 37.6909 174.254 36.7759 173.679 35.5864C173.122 34.3786 172.843 32.9786 172.843 31.3865ZM183.739 31.3865C183.739 30.3983 183.469 29.6206 182.93 29.0533C182.408 28.486 181.761 28.2023 180.988 28.2023C180.197 28.2023 179.54 28.486 179.019 29.0533C178.498 29.6023 178.237 30.38 178.237 31.3865C178.237 32.3747 178.498 33.1616 179.019 33.7472C179.54 34.3145 180.197 34.5982 180.988 34.5982C181.761 34.5982 182.408 34.3145 182.93 33.7472C183.469 33.1799 183.739 32.393 183.739 31.3865Z" fill="#242945"/>
<path d="M190.095 31.3865C190.095 29.7944 190.374 28.4036 190.931 27.2141C191.506 26.0246 192.28 25.1096 193.251 24.4691C194.239 23.8286 195.336 23.5084 196.541 23.5084C197.584 23.5084 198.483 23.7188 199.238 24.1397C199.993 24.5606 200.577 25.1279 200.991 25.8416V23.7005H206.277V39.1H200.991V36.9589C200.577 37.6726 199.984 38.2399 199.211 38.6608C198.456 39.0817 197.566 39.2921 196.541 39.2921C195.336 39.2921 194.239 38.9719 193.251 38.3314C192.28 37.6909 191.506 36.7759 190.931 35.5864C190.374 34.3786 190.095 32.9786 190.095 31.3865ZM200.991 31.3865C200.991 30.3983 200.721 29.6206 200.182 29.0533C199.66 28.486 199.013 28.2023 198.24 28.2023C197.449 28.2023 196.793 28.486 196.271 29.0533C195.75 29.6023 195.489 30.38 195.489 31.3865C195.489 32.3747 195.75 33.1616 196.271 33.7472C196.793 34.3145 197.449 34.5982 198.24 34.5982C199.013 34.5982 199.66 34.3145 200.182 33.7472C200.721 33.1799 200.991 32.393 200.991 31.3865Z" fill="#242945"/>
<path d="M224.5 23.7005L214.899 46.4291H209.154L212.768 38.4412L206.565 23.7005H212.445L215.627 32.4296L218.701 23.7005H224.5Z" fill="#242945"/>
</svg>
